<?xml version="1.0" standalone="no"?>
<!DOCTYPE svg PUBLIC "-//W3C//DTD SVG 20010904//EN"
 "http://www.w3.org/TR/2001/REC-SVG-20010904/DTD/svg10.dtd">
<svg version="1.0" xmlns="http://www.w3.org/2000/svg"
 width="320.000000pt" height="320.000000pt" viewBox="0 0 320.000000 320.000000"
 preserveAspectRatio="xMidYMid meet">
<metadata>
Created by potrace 1.14, written by Peter Selinger 2001-2017
</metadata>
<g transform="translate(0.000000,320.000000) scale(0.100000,-0.100000)"
fill="#000000" stroke="none">
<path d="M1720 3047 c-71 -25 -158 -29 -243 -11 -37 7 -84 16 -104 18 -40 5
-103 -16 -103 -35 0 -7 -3 -10 -6 -6 -20 20 -61 -83 -67 -167 -2 -32 -8 -51
-18 -54 -8 -3 -16 -8 -19 -11 -3 -3 -21 -18 -41 -33 -50 -37 -170 -150 -165
-155 2 -3 -5 -14 -16 -25 l-21 -21 -24 27 c-12 15 -23 24 -23 20 0 -4 -6 0
-13 11 -13 17 -15 16 -39 -16 -32 -42 -67 -110 -72 -141 -3 -13 -5 -23 -6 -23
-1 0 -3 -16 -4 -35 -4 -48 25 -86 84 -111 44 -19 48 -23 39 -41 -6 -11 -12
-28 -14 -40 -6 -31 -25 -48 -54 -48 -14 0 -46 -10 -71 -22 -25 -12 -48 -21
-52 -20 -4 1 -10 -7 -13 -18 -4 -11 -10 -18 -15 -15 -4 3 -7 -1 -7 -8 1 -6 -5
-38 -13 -70 -12 -52 -12 -67 4 -140 19 -85 25 -296 10 -367 -4 -19 -7 -65 -7
-101 0 -113 53 -177 154 -183 47 -3 57 -11 61 -51 3 -27 0 -29 -42 -37 -92
-16 -122 -98 -81 -219 23 -65 66 -139 83 -139 5 0 22 13 38 30 l29 29 36 -55
c20 -30 46 -64 58 -77 13 -12 30 -33 40 -46 16 -24 16 -25 -30 -72 -26 -26
-51 -45 -56 -42 -6 3 -7 2 -4 -4 3 -5 -3 -17 -14 -26 -24 -21 -26 -83 -3 -115
8 -12 12 -22 8 -22 -18 0 125 -127 148 -132 25 -5 76 14 71 26 -11 24 8 21 79
-15 45 -22 93 -43 107 -46 14 -2 31 -9 38 -15 7 -6 13 -8 13 -5 0 3 21 -2 48
-10 79 -26 279 -26 387 -1 50 11 95 23 100 27 6 3 12 6 15 7 13 2 50 19 113
49 46 22 67 28 67 19 0 -8 10 -20 23 -28 36 -24 76 -8 134 51 93 95 110 157
55 203 -18 15 -32 33 -32 40 0 7 -3 10 -7 7 -7 -8 -73 60 -73 75 0 8 74 104
91 118 4 3 16 24 28 47 l21 43 29 -30 c15 -17 32 -30 37 -30 10 0 65 74 68 93
2 7 8 31 15 55 34 120 -11 198 -116 201 -17 1 -23 7 -23 25 0 14 5 28 10 31 6
4 8 11 5 16 -7 10 -6 10 45 14 58 3 108 31 133 72 12 21 21 41 20 44 -1 4 2
21 7 39 5 19 6 51 0 78 -28 153 -30 265 -5 375 20 89 26 167 13 167 -5 0 -6 5
-3 10 11 18 -15 77 -48 106 -31 28 -93 54 -133 54 -13 0 -28 19 -47 58 -15 31
-27 60 -27 64 0 4 21 13 46 19 64 16 78 41 72 131 -3 41 -10 74 -17 76 -6 2
-9 8 -6 12 3 5 -10 34 -30 64 -38 60 -47 62 -92 20 -29 -27 -43 -24 -65 14
-22 37 -121 134 -190 185 -33 25 -37 34 -43 90 -9 76 -48 153 -90 174 -43 23
-111 23 -175 0z"/>
</g>
</svg>
